<?xml version="1.0" encoding="UTF-8"?>
<svg version="1.1" xmlns="http://www.w3.org/2000/svg" width="1600" height="1600">
<path d="M0 0 C66 0 132 0 200 0 C200 8.25 200 16.5 200 25 C233 25 266 25 300 25 C300 33.25 300 41.5 300 50 C316.5 50 333 50 350 50 C350 58.25 350 66.5 350 75 C374.75 75 399.5 75 425 75 C425 83.25 425 91.5 425 100 C433.25 100 441.5 100 450 100 C450 108.25 450 116.5 450 125 C458.25 125 466.5 125 475 125 C475 133.25 475 141.5 475 150 C483.25 150 491.5 150 500 150 C500 158.25 500 166.5 500 175 C508.25 175 516.5 175 525 175 C525 183.25 525 191.5 525 200 C533.25 200 541.5 200 550 200 C550 208.25 550 216.5 550 225 C558.25 225 566.5 225 575 225 C575 241.5 575 258 575 275 C583.25 275 591.5 275 600 275 C600 283.25 600 291.5 600 300 C608.25 300 616.5 300 625 300 C625 316.5 625 333 625 350 C633.25 350 641.5 350 650 350 C650 374.75 650 399.5 650 425 C658.25 425 666.5 425 675 425 C675 499.25 675 573.5 675 650 C732.75 650 790.5 650 850 650 C850 658.25 850 666.5 850 675 C792.25 675 734.5 675 675 675 C675 699.75 675 724.5 675 750 C691.5 750 708 750 725 750 C725 758.25 725 766.5 725 775 C708.5 775 692 775 675 775 C675 791.5 675 808 675 825 C666.75 825 658.5 825 650 825 C650 841.5 650 858 650 875 C641.75 875 633.5 875 625 875 C625 891.5 625 908 625 925 C616.75 925 608.5 925 600 925 C600 933.25 600 941.5 600 950 C591.75 950 583.5 950 575 950 C575 966.5 575 983 575 1000 C566.75 1000 558.5 1000 550 1000 C550 1008.25 550 1016.5 550 1025 C541.75 1025 533.5 1025 525 1025 C525 1033.25 525 1041.5 525 1050 C516.75 1050 508.5 1050 500 1050 C500 1083 500 1116 500 1150 C491.75 1150 483.5 1150 475 1150 C475 1158.25 475 1166.5 475 1175 C417.25 1175 359.5 1175 300 1175 C300 1183.25 300 1191.5 300 1200 C267 1200 234 1200 200 1200 C200 1208.25 200 1216.5 200 1225 C191.75 1225 183.5 1225 175 1225 C175 1233.25 175 1241.5 175 1250 C150.25 1250 125.5 1250 100 1250 C100 1258.25 100 1266.5 100 1275 C58.75 1275 17.5 1275 -25 1275 C-25 1266.75 -25 1258.5 -25 1250 C-66.25 1250 -107.5 1250 -150 1250 C-150 1241.75 -150 1233.5 -150 1225 C-166.5 1225 -183 1225 -200 1225 C-200 1200.25 -200 1175.5 -200 1150 C-208.25 1150 -216.5 1150 -225 1150 C-225 1141.75 -225 1133.5 -225 1125 C-233.25 1125 -241.5 1125 -250 1125 C-250 1116.75 -250 1108.5 -250 1100 C-258.25 1100 -266.5 1100 -275 1100 C-275 1091.75 -275 1083.5 -275 1075 C-283.25 1075 -291.5 1075 -300 1075 C-300 1066.75 -300 1058.5 -300 1050 C-308.25 1050 -316.5 1050 -325 1050 C-325 1041.75 -325 1033.5 -325 1025 C-333.25 1025 -341.5 1025 -350 1025 C-350 1016.75 -350 1008.5 -350 1000 C-358.25 1000 -366.5 1000 -375 1000 C-375 983.5 -375 967 -375 950 C-383.25 950 -391.5 950 -400 950 C-400 941.75 -400 933.5 -400 925 C-408.25 925 -416.5 925 -425 925 C-425 908.5 -425 892 -425 875 C-433.25 875 -441.5 875 -450 875 C-450 866.75 -450 858.5 -450 850 C-466.5 850 -483 850 -500 850 C-500 825.25 -500 800.5 -500 775 C-508.25 775 -516.5 775 -525 775 C-525 783.25 -525 791.5 -525 800 C-549.75 800 -574.5 800 -600 800 C-600 775.25 -600 750.5 -600 725 C-583.5 725 -567 725 -550 725 C-550 716.75 -550 708.5 -550 700 C-541.75 700 -533.5 700 -525 700 C-525 691.75 -525 683.5 -525 675 C-516.75 675 -508.5 675 -500 675 C-500 666.75 -500 658.5 -500 650 C-491.75 650 -483.5 650 -475 650 C-475 575.75 -475 501.5 -475 425 C-466.75 425 -458.5 425 -450 425 C-450 400.25 -450 375.5 -450 350 C-441.75 350 -433.5 350 -425 350 C-425 333.5 -425 317 -425 300 C-416.75 300 -408.5 300 -400 300 C-400 291.75 -400 283.5 -400 275 C-391.75 275 -383.5 275 -375 275 C-375 258.5 -375 242 -375 225 C-366.75 225 -358.5 225 -350 225 C-350 216.75 -350 208.5 -350 200 C-341.75 200 -333.5 200 -325 200 C-325 191.75 -325 183.5 -325 175 C-316.75 175 -308.5 175 -300 175 C-300 166.75 -300 158.5 -300 150 C-291.75 150 -283.5 150 -275 150 C-275 141.75 -275 133.5 -275 125 C-266.75 125 -258.5 125 -250 125 C-250 116.75 -250 108.5 -250 100 C-241.75 100 -233.5 100 -225 100 C-225 91.75 -225 83.5 -225 75 C-200.25 75 -175.5 75 -150 75 C-150 66.75 -150 58.5 -150 50 C-133.5 50 -117 50 -100 50 C-100 41.75 -100 33.5 -100 25 C-67 25 -34 25 0 25 C0 16.75 0 8.5 0 0 Z " fill="#A59FB5" transform="translate(700,150)"/>
<path d="M0 0 C66 0 132 0 200 0 C200 8.25 200 16.5 200 25 C233 25 266 25 300 25 C300 33.25 300 41.5 300 50 C316.5 50 333 50 350 50 C350 58.25 350 66.5 350 75 C374.75 75 399.5 75 425 75 C425 83.25 425 91.5 425 100 C433.25 100 441.5 100 450 100 C450 108.25 450 116.5 450 125 C458.25 125 466.5 125 475 125 C475 133.25 475 141.5 475 150 C483.25 150 491.5 150 500 150 C500 158.25 500 166.5 500 175 C508.25 175 516.5 175 525 175 C525 183.25 525 191.5 525 200 C533.25 200 541.5 200 550 200 C550 208.25 550 216.5 550 225 C558.25 225 566.5 225 575 225 C575 241.5 575 258 575 275 C583.25 275 591.5 275 600 275 C600 283.25 600 291.5 600 300 C608.25 300 616.5 300 625 300 C625 316.5 625 333 625 350 C633.25 350 641.5 350 650 350 C650 374.75 650 399.5 650 425 C658.25 425 666.5 425 675 425 C675 499.25 675 573.5 675 650 C732.75 650 790.5 650 850 650 C850 658.25 850 666.5 850 675 C792.25 675 734.5 675 675 675 C675 699.75 675 724.5 675 750 C691.5 750 708 750 725 750 C725 758.25 725 766.5 725 775 C708.5 775 692 775 675 775 C675 791.5 675 808 675 825 C666.75 825 658.5 825 650 825 C650 841.5 650 858 650 875 C641.75 875 633.5 875 625 875 C625 891.5 625 908 625 925 C616.75 925 608.5 925 600 925 C600 933.25 600 941.5 600 950 C591.75 950 583.5 950 575 950 C575 966.5 575 983 575 1000 C566.75 1000 558.5 1000 550 1000 C550 1008.25 550 1016.5 550 1025 C541.75 1025 533.5 1025 525 1025 C525 1033.25 525 1041.5 525 1050 C508.5 1050 492 1050 475 1050 C475 1041.75 475 1033.5 475 1025 C458.5 1025 442 1025 425 1025 C425 1016.75 425 1008.5 425 1000 C400.25 1000 375.5 1000 350 1000 C350 991.75 350 983.5 350 975 C358.25 975 366.5 975 375 975 C375 942 375 909 375 875 C383.25 875 391.5 875 400 875 C400 866.75 400 858.5 400 850 C408.25 850 416.5 850 425 850 C425 841.75 425 833.5 425 825 C433.25 825 441.5 825 450 825 C450 800.25 450 775.5 450 750 C458.25 750 466.5 750 475 750 C475 758.25 475 766.5 475 775 C483.25 775 491.5 775 500 775 C500 766.75 500 758.5 500 750 C508.25 750 516.5 750 525 750 C525 741.75 525 733.5 525 725 C516.75 725 508.5 725 500 725 C500 650.75 500 576.5 500 500 C491.75 500 483.5 500 475 500 C475 491.75 475 483.5 475 475 C466.75 475 458.5 475 450 475 C450 425.5 450 376 450 325 C441.75 325 433.5 325 425 325 C425 316.75 425 308.5 425 300 C416.75 300 408.5 300 400 300 C400 283.5 400 267 400 250 C391.75 250 383.5 250 375 250 C375 241.75 375 233.5 375 225 C366.75 225 358.5 225 350 225 C350 216.75 350 208.5 350 200 C317 200 284 200 250 200 C250 216.5 250 233 250 250 C241.75 250 233.5 250 225 250 C225 274.75 225 299.5 225 325 C216.75 325 208.5 325 200 325 C200 333.25 200 341.5 200 350 C191.75 350 183.5 350 175 350 C175 341.75 175 333.5 175 325 C142 325 109 325 75 325 C75 333.25 75 341.5 75 350 C58.5 350 42 350 25 350 C25 341.75 25 333.5 25 325 C16.75 325 8.5 325 0 325 C0 316.75 0 308.5 0 300 C-8.25 300 -16.5 300 -25 300 C-25 291.75 -25 283.5 -25 275 C-33.25 275 -41.5 275 -50 275 C-50 266.75 -50 258.5 -50 250 C-58.25 250 -66.5 250 -75 250 C-75 241.75 -75 233.5 -75 225 C-83.25 225 -91.5 225 -100 225 C-100 216.75 -100 208.5 -100 200 C-108.25 200 -116.5 200 -125 200 C-125 191.75 -125 183.5 -125 175 C-141.5 175 -158 175 -175 175 C-175 183.25 -175 191.5 -175 200 C-183.25 200 -191.5 200 -200 200 C-200 216.5 -200 233 -200 250 C-208.25 250 -216.5 250 -225 250 C-225 357.25 -225 464.5 -225 575 C-233.25 575 -241.5 575 -250 575 C-250 583.25 -250 591.5 -250 600 C-258.25 600 -266.5 600 -275 600 C-275 608.25 -275 616.5 -275 625 C-283.25 625 -291.5 625 -300 625 C-300 682.75 -300 740.5 -300 800 C-308.25 800 -316.5 800 -325 800 C-325 816.5 -325 833 -325 850 C-333.25 850 -341.5 850 -350 850 C-350 866.5 -350 883 -350 900 C-358.25 900 -366.5 900 -375 900 C-375 908.25 -375 916.5 -375 925 C-391.5 925 -408 925 -425 925 C-425 908.5 -425 892 -425 875 C-433.25 875 -441.5 875 -450 875 C-450 866.75 -450 858.5 -450 850 C-466.5 850 -483 850 -500 850 C-500 825.25 -500 800.5 -500 775 C-508.25 775 -516.5 775 -525 775 C-525 783.25 -525 791.5 -525 800 C-549.75 800 -574.5 800 -600 800 C-600 775.25 -600 750.5 -600 725 C-583.5 725 -567 725 -550 725 C-550 716.75 -550 708.5 -550 700 C-541.75 700 -533.5 700 -525 700 C-525 691.75 -525 683.5 -525 675 C-516.75 675 -508.5 675 -500 675 C-500 666.75 -500 658.5 -500 650 C-491.75 650 -483.5 650 -475 650 C-475 575.75 -475 501.5 -475 425 C-466.75 425 -458.5 425 -450 425 C-450 400.25 -450 375.5 -450 350 C-441.75 350 -433.5 350 -425 350 C-425 333.5 -425 317 -425 300 C-416.75 300 -408.5 300 -400 300 C-400 291.75 -400 283.5 -400 275 C-391.75 275 -383.5 275 -375 275 C-375 258.5 -375 242 -375 225 C-366.75 225 -358.5 225 -350 225 C-350 216.75 -350 208.5 -350 200 C-341.75 200 -333.5 200 -325 200 C-325 191.75 -325 183.5 -325 175 C-316.75 175 -308.5 175 -300 175 C-300 166.75 -300 158.5 -300 150 C-291.75 150 -283.5 150 -275 150 C-275 141.75 -275 133.5 -275 125 C-266.75 125 -258.5 125 -250 125 C-250 116.75 -250 108.5 -250 100 C-241.75 100 -233.5 100 -225 100 C-225 91.75 -225 83.5 -225 75 C-200.25 75 -175.5 75 -150 75 C-150 66.75 -150 58.5 -150 50 C-133.5 50 -117 50 -100 50 C-100 41.75 -100 33.5 -100 25 C-67 25 -34 25 0 25 C0 16.75 0 8.5 0 0 Z " fill="#FFFFFF" transform="translate(700,150)"/>
<path d="M0 0 C16.5 0 33 0 50 0 C50 8.25 50 16.5 50 25 C58.25 25 66.5 25 75 25 C75 33.25 75 41.5 75 50 C83.25 50 91.5 50 100 50 C100 58.25 100 66.5 100 75 C108.25 75 116.5 75 125 75 C125 83.25 125 91.5 125 100 C133.25 100 141.5 100 150 100 C150 108.25 150 116.5 150 125 C158.25 125 166.5 125 175 125 C175 133.25 175 141.5 175 150 C183.25 150 191.5 150 200 150 C200 158.25 200 166.5 200 175 C216.5 175 233 175 250 175 C250 199.75 250 224.5 250 250 C241.75 250 233.5 250 225 250 C225 266.5 225 283 225 300 C216.75 300 208.5 300 200 300 C200 308.25 200 316.5 200 325 C175.25 325 150.5 325 125 325 C125 333.25 125 341.5 125 350 C116.75 350 108.5 350 100 350 C100 358.25 100 366.5 100 375 C91.75 375 83.5 375 75 375 C75 383.25 75 391.5 75 400 C66.75 400 58.5 400 50 400 C50 408.25 50 416.5 50 425 C58.25 425 66.5 425 75 425 C75 449.75 75 474.5 75 500 C83.25 500 91.5 500 100 500 C100 574.25 100 648.5 100 725 C91.75 725 83.5 725 75 725 C75 733.25 75 741.5 75 750 C91.5 750 108 750 125 750 C125 758.25 125 766.5 125 775 C141.5 775 158 775 175 775 C175 783.25 175 791.5 175 800 C150.25 800 125.5 800 100 800 C100 808.25 100 816.5 100 825 C116.5 825 133 825 150 825 C150 833.25 150 841.5 150 850 C232.5 850 315 850 400 850 C400 841.75 400 833.5 400 825 C424.75 825 449.5 825 475 825 C475 816.75 475 808.5 475 800 C491.5 800 508 800 525 800 C525 808.25 525 816.5 525 825 C549.75 825 574.5 825 600 825 C600 833.25 600 841.5 600 850 C616.5 850 633 850 650 850 C650 858.25 650 866.5 650 875 C658.25 875 666.5 875 675 875 C675 908 675 941 675 975 C666.75 975 658.5 975 650 975 C650 983.25 650 991.5 650 1000 C592.25 1000 534.5 1000 475 1000 C475 1008.25 475 1016.5 475 1025 C442 1025 409 1025 375 1025 C375 1033.25 375 1041.5 375 1050 C366.75 1050 358.5 1050 350 1050 C350 1058.25 350 1066.5 350 1075 C325.25 1075 300.5 1075 275 1075 C275 1083.25 275 1091.5 275 1100 C233.75 1100 192.5 1100 150 1100 C150 1091.75 150 1083.5 150 1075 C108.75 1075 67.5 1075 25 1075 C25 1066.75 25 1058.5 25 1050 C8.5 1050 -8 1050 -25 1050 C-25 1025.25 -25 1000.5 -25 975 C-33.25 975 -41.5 975 -50 975 C-50 966.75 -50 958.5 -50 950 C-58.25 950 -66.5 950 -75 950 C-75 941.75 -75 933.5 -75 925 C-83.25 925 -91.5 925 -100 925 C-100 916.75 -100 908.5 -100 900 C-108.25 900 -116.5 900 -125 900 C-125 891.75 -125 883.5 -125 875 C-133.25 875 -141.5 875 -150 875 C-150 866.75 -150 858.5 -150 850 C-158.25 850 -166.5 850 -175 850 C-175 841.75 -175 833.5 -175 825 C-183.25 825 -191.5 825 -200 825 C-200 808.5 -200 792 -200 775 C-208.25 775 -216.5 775 -225 775 C-225 766.75 -225 758.5 -225 750 C-216.75 750 -208.5 750 -200 750 C-200 741.75 -200 733.5 -200 725 C-191.75 725 -183.5 725 -175 725 C-175 708.5 -175 692 -175 675 C-166.75 675 -158.5 675 -150 675 C-150 658.5 -150 642 -150 625 C-141.75 625 -133.5 625 -125 625 C-125 567.25 -125 509.5 -125 450 C-116.75 450 -108.5 450 -100 450 C-100 441.75 -100 433.5 -100 425 C-91.75 425 -83.5 425 -75 425 C-75 416.75 -75 408.5 -75 400 C-66.75 400 -58.5 400 -50 400 C-50 292.75 -50 185.5 -50 75 C-41.75 75 -33.5 75 -25 75 C-25 58.5 -25 42 -25 25 C-16.75 25 -8.5 25 0 25 C0 16.75 0 8.5 0 0 Z " fill="#546D8E" transform="translate(525,325)"/>
<path d="M0 0 C8.25 0 16.5 0 25 0 C25 8.25 25 16.5 25 25 C41.5 25 58 25 75 25 C75 33.25 75 41.5 75 50 C91.5 50 108 50 125 50 C125 58.25 125 66.5 125 75 C100.25 75 75.5 75 50 75 C50 83.25 50 91.5 50 100 C66.5 100 83 100 100 100 C100 108.25 100 116.5 100 125 C182.5 125 265 125 350 125 C350 116.75 350 108.5 350 100 C374.75 100 399.5 100 425 100 C425 91.75 425 83.5 425 75 C441.5 75 458 75 475 75 C475 83.25 475 91.5 475 100 C499.75 100 524.5 100 550 100 C550 108.25 550 116.5 550 125 C566.5 125 583 125 600 125 C600 133.25 600 141.5 600 150 C608.25 150 616.5 150 625 150 C625 183 625 216 625 250 C616.75 250 608.5 250 600 250 C600 258.25 600 266.5 600 275 C542.25 275 484.5 275 425 275 C425 283.25 425 291.5 425 300 C392 300 359 300 325 300 C325 308.25 325 316.5 325 325 C316.75 325 308.5 325 300 325 C300 333.25 300 341.5 300 350 C275.25 350 250.5 350 225 350 C225 358.25 225 366.5 225 375 C183.75 375 142.5 375 100 375 C100 366.75 100 358.5 100 350 C58.75 350 17.5 350 -25 350 C-25 341.75 -25 333.5 -25 325 C-0.25 325 24.5 325 50 325 C50 300.25 50 275.5 50 250 C58.25 250 66.5 250 75 250 C75 241.75 75 233.5 75 225 C83.25 225 91.5 225 100 225 C100 216.75 100 208.5 100 200 C108.25 200 116.5 200 125 200 C125 191.75 125 183.5 125 175 C83.75 175 42.5 175 0 175 C0 166.75 0 158.5 0 150 C24.75 150 49.5 150 75 150 C75 141.75 75 133.5 75 125 C58.5 125 42 125 25 125 C25 108.5 25 92 25 75 C16.75 75 8.5 75 0 75 C0 50.25 0 25.5 0 0 Z " fill="#000000" transform="translate(575,1050)"/>
<path d="M0 0 C33 0 66 0 100 0 C100 8.25 100 16.5 100 25 C108.25 25 116.5 25 125 25 C125 33.25 125 41.5 125 50 C133.25 50 141.5 50 150 50 C150 66.5 150 83 150 100 C158.25 100 166.5 100 175 100 C175 108.25 175 116.5 175 125 C183.25 125 191.5 125 200 125 C200 174.5 200 224 200 275 C208.25 275 216.5 275 225 275 C225 283.25 225 291.5 225 300 C233.25 300 241.5 300 250 300 C250 374.25 250 448.5 250 525 C258.25 525 266.5 525 275 525 C275 533.25 275 541.5 275 550 C266.75 550 258.5 550 250 550 C250 558.25 250 566.5 250 575 C241.75 575 233.5 575 225 575 C225 566.75 225 558.5 225 550 C216.75 550 208.5 550 200 550 C200 574.75 200 599.5 200 625 C191.75 625 183.5 625 175 625 C175 534.25 175 443.5 175 350 C166.75 350 158.5 350 150 350 C150 333.5 150 317 150 300 C141.75 300 133.5 300 125 300 C125 283.5 125 267 125 250 C92 250 59 250 25 250 C25 283 25 316 25 350 C16.75 350 8.5 350 0 350 C0 325.25 0 300.5 0 275 C-24.75 275 -49.5 275 -75 275 C-75 283.25 -75 291.5 -75 300 C-83.25 300 -91.5 300 -100 300 C-100 308.25 -100 316.5 -100 325 C-108.25 325 -116.5 325 -125 325 C-125 308.5 -125 292 -125 275 C-116.75 275 -108.5 275 -100 275 C-100 266.75 -100 258.5 -100 250 C-91.75 250 -83.5 250 -75 250 C-75 225.25 -75 200.5 -75 175 C-83.25 175 -91.5 175 -100 175 C-100 166.75 -100 158.5 -100 150 C-124.75 150 -149.5 150 -175 150 C-175 141.75 -175 133.5 -175 125 C-142 125 -109 125 -75 125 C-75 133.25 -75 141.5 -75 150 C-66.75 150 -58.5 150 -50 150 C-50 141.75 -50 133.5 -50 125 C-41.75 125 -33.5 125 -25 125 C-25 100.25 -25 75.5 -25 50 C-16.75 50 -8.5 50 0 50 C0 33.5 0 17 0 0 Z " fill="#546D8E" transform="translate(950,350)"/>
<path d="M0 0 C16.5 0 33 0 50 0 C50 8.25 50 16.5 50 25 C58.25 25 66.5 25 75 25 C75 33.25 75 41.5 75 50 C83.25 50 91.5 50 100 50 C100 58.25 100 66.5 100 75 C108.25 75 116.5 75 125 75 C125 83.25 125 91.5 125 100 C133.25 100 141.5 100 150 100 C150 108.25 150 116.5 150 125 C158.25 125 166.5 125 175 125 C175 133.25 175 141.5 175 150 C183.25 150 191.5 150 200 150 C200 158.25 200 166.5 200 175 C216.5 175 233 175 250 175 C250 199.75 250 224.5 250 250 C241.75 250 233.5 250 225 250 C225 266.5 225 283 225 300 C216.75 300 208.5 300 200 300 C200 308.25 200 316.5 200 325 C158.75 325 117.5 325 75 325 C75 333.25 75 341.5 75 350 C66.75 350 58.5 350 50 350 C50 358.25 50 366.5 50 375 C33.5 375 17 375 0 375 C0 366.75 0 358.5 0 350 C-8.25 350 -16.5 350 -25 350 C-25 242.75 -25 135.5 -25 25 C-16.75 25 -8.5 25 0 25 C0 16.75 0 8.5 0 0 Z " fill="#546D8E" transform="translate(525,325)"/>
<path d="M0 0 C24.75 0 49.5 0 75 0 C75 24.75 75 49.5 75 75 C33.75 75 -7.5 75 -50 75 C-50 83.25 -50 91.5 -50 100 C-17 100 16 100 50 100 C50 141.25 50 182.5 50 225 C41.75 225 33.5 225 25 225 C25 233.25 25 241.5 25 250 C16.75 250 8.5 250 0 250 C0 266.5 0 283 0 300 C-8.25 300 -16.5 300 -25 300 C-25 308.25 -25 316.5 -25 325 C-33.25 325 -41.5 325 -50 325 C-50 333.25 -50 341.5 -50 350 C-66.5 350 -83 350 -100 350 C-100 341.75 -100 333.5 -100 325 C-116.5 325 -133 325 -150 325 C-150 316.75 -150 308.5 -150 300 C-174.75 300 -199.5 300 -225 300 C-225 291.75 -225 283.5 -225 275 C-216.75 275 -208.5 275 -200 275 C-200 242 -200 209 -200 175 C-191.75 175 -183.5 175 -175 175 C-175 166.75 -175 158.5 -175 150 C-166.75 150 -158.5 150 -150 150 C-150 141.75 -150 133.5 -150 125 C-141.75 125 -133.5 125 -125 125 C-125 100.25 -125 75.5 -125 50 C-116.75 50 -108.5 50 -100 50 C-100 58.25 -100 66.5 -100 75 C-91.75 75 -83.5 75 -75 75 C-75 66.75 -75 58.5 -75 50 C-66.75 50 -58.5 50 -50 50 C-50 41.75 -50 33.5 -50 25 C-33.5 25 -17 25 0 25 C0 16.75 0 8.5 0 0 Z " fill="#FFFFFF" transform="translate(1275,850)"/>
<path d="M0 0 C8.25 0 16.5 0 25 0 C25 66 25 132 25 200 C58 200 91 200 125 200 C125 241.25 125 282.5 125 325 C116.75 325 108.5 325 100 325 C100 333.25 100 341.5 100 350 C91.75 350 83.5 350 75 350 C75 366.5 75 383 75 400 C66.75 400 58.5 400 50 400 C50 416.5 50 433 50 450 C41.75 450 33.5 450 25 450 C25 441.75 25 433.5 25 425 C8.5 425 -8 425 -25 425 C-25 400.25 -25 375.5 -25 350 C-33.25 350 -41.5 350 -50 350 C-50 358.25 -50 366.5 -50 375 C-74.75 375 -99.5 375 -125 375 C-125 350.25 -125 325.5 -125 300 C-108.5 300 -92 300 -75 300 C-75 291.75 -75 283.5 -75 275 C-66.75 275 -58.5 275 -50 275 C-50 266.75 -50 258.5 -50 250 C-41.75 250 -33.5 250 -25 250 C-25 241.75 -25 233.5 -25 225 C-16.75 225 -8.5 225 0 225 C0 150.75 0 76.5 0 0 Z " fill="#000000" transform="translate(225,575)"/>
<path d="M0 0 C8.25 0 16.5 0 25 0 C25 16.5 25 33 25 50 C41.5 50 58 50 75 50 C75 58.25 75 66.5 75 75 C50.25 75 25.5 75 0 75 C0 83.25 0 91.5 0 100 C41.25 100 82.5 100 125 100 C125 108.25 125 116.5 125 125 C116.75 125 108.5 125 100 125 C100 133.25 100 141.5 100 150 C91.75 150 83.5 150 75 150 C75 158.25 75 166.5 75 175 C66.75 175 58.5 175 50 175 C50 199.75 50 224.5 50 250 C25.25 250 0.5 250 -25 250 C-25 241.75 -25 233.5 -25 225 C-33.25 225 -41.5 225 -50 225 C-50 192 -50 159 -50 125 C-41.75 125 -33.5 125 -25 125 C-25 92 -25 59 -25 25 C-16.75 25 -8.5 25 0 25 C0 16.75 0 8.5 0 0 Z " fill="#A59FB5" transform="translate(575,1125)"/>
<path d="M0 0 C8.25 0 16.5 0 25 0 C25 74.25 25 148.5 25 225 C82.75 225 140.5 225 200 225 C200 233.25 200 241.5 200 250 C142.25 250 84.5 250 25 250 C25 274.75 25 299.5 25 325 C41.5 325 58 325 75 325 C75 333.25 75 341.5 75 350 C58.5 350 42 350 25 350 C25 366.5 25 383 25 400 C16.75 400 8.5 400 0 400 C0 416.5 0 433 0 450 C-8.25 450 -16.5 450 -25 450 C-25 425.25 -25 400.5 -25 375 C-58 375 -91 375 -125 375 C-125 366.75 -125 358.5 -125 350 C-83.75 350 -42.5 350 0 350 C0 325.25 0 300.5 0 275 C-24.75 275 -49.5 275 -75 275 C-75 266.75 -75 258.5 -75 250 C-50.25 250 -25.5 250 0 250 C0 167.5 0 85 0 0 Z " fill="#000000" transform="translate(1350,575)"/>
<path d="M0 0 C8.25 0 16.5 0 25 0 C25 8.25 25 16.5 25 25 C33.25 25 41.5 25 50 25 C50 49.75 50 74.5 50 100 C58.25 100 66.5 100 75 100 C75 108.25 75 116.5 75 125 C83.25 125 91.5 125 100 125 C100 133.25 100 141.5 100 150 C116.5 150 133 150 150 150 C150 166.5 150 183 150 200 C141.75 200 133.5 200 125 200 C125 216.5 125 233 125 250 C108.5 250 92 250 75 250 C75 241.75 75 233.5 75 225 C66.75 225 58.5 225 50 225 C50 216.75 50 208.5 50 200 C41.75 200 33.5 200 25 200 C25 191.75 25 183.5 25 175 C16.75 175 8.5 175 0 175 C0 166.75 0 158.5 0 150 C-8.25 150 -16.5 150 -25 150 C-25 117 -25 84 -25 50 C-16.75 50 -8.5 50 0 50 C0 33.5 0 17 0 0 Z " fill="#FFFFFF" transform="translate(375,1025)"/>
<path d="M0 0 C16.5 0 33 0 50 0 C50 57.75 50 115.5 50 175 C41.75 175 33.5 175 25 175 C25 191.5 25 208 25 225 C16.75 225 8.5 225 0 225 C0 241.5 0 258 0 275 C-8.25 275 -16.5 275 -25 275 C-25 283.25 -25 291.5 -25 300 C-41.5 300 -58 300 -75 300 C-75 267 -75 234 -75 200 C-66.75 200 -58.5 200 -50 200 C-50 183.5 -50 167 -50 150 C-41.75 150 -33.5 150 -25 150 C-25 141.75 -25 133.5 -25 125 C-16.75 125 -8.5 125 0 125 C0 83.75 0 42.5 0 0 Z " fill="#FFFFFF" transform="translate(350,775)"/>
<path d="M0 0 C33 0 66 0 100 0 C100 8.25 100 16.5 100 25 C108.25 25 116.5 25 125 25 C125 16.75 125 8.5 125 0 C133.25 0 141.5 0 150 0 C150 16.5 150 33 150 50 C141.75 50 133.5 50 125 50 C125 58.25 125 66.5 125 75 C149.75 75 174.5 75 200 75 C200 83.25 200 91.5 200 100 C233 100 266 100 300 100 C300 108.25 300 116.5 300 125 C267 125 234 125 200 125 C200 158 200 191 200 225 C191.75 225 183.5 225 175 225 C175 200.25 175 175.5 175 150 C150.25 150 125.5 150 100 150 C100 158.25 100 166.5 100 175 C91.75 175 83.5 175 75 175 C75 183.25 75 191.5 75 200 C66.75 200 58.5 200 50 200 C50 183.5 50 167 50 150 C58.25 150 66.5 150 75 150 C75 141.75 75 133.5 75 125 C83.25 125 91.5 125 100 125 C100 100.25 100 75.5 100 50 C91.75 50 83.5 50 75 50 C75 41.75 75 33.5 75 25 C50.25 25 25.5 25 0 25 C0 16.75 0 8.5 0 0 Z " fill="#000000" transform="translate(775,475)"/>
<path d="M0 0 C16.5 0 33 0 50 0 C50 8.25 50 16.5 50 25 C66.5 25 83 25 100 25 C100 41.5 100 58 100 75 C91.75 75 83.5 75 75 75 C75 66.75 75 58.5 75 50 C58.5 50 42 50 25 50 C25 58.25 25 66.5 25 75 C33.25 75 41.5 75 50 75 C50 83.25 50 91.5 50 100 C58.25 100 66.5 100 75 100 C75 108.25 75 116.5 75 125 C58.5 125 42 125 25 125 C25 116.75 25 108.5 25 100 C16.75 100 8.5 100 0 100 C0 91.75 0 83.5 0 75 C-16.5 75 -33 75 -50 75 C-50 83.25 -50 91.5 -50 100 C-41.75 100 -33.5 100 -25 100 C-25 108.25 -25 116.5 -25 125 C-16.75 125 -8.5 125 0 125 C0 133.25 0 141.5 0 150 C-24.75 150 -49.5 150 -75 150 C-75 141.75 -75 133.5 -75 125 C-91.5 125 -108 125 -125 125 C-125 108.5 -125 92 -125 75 C-116.75 75 -108.5 75 -100 75 C-100 66.75 -100 58.5 -100 50 C-91.75 50 -83.5 50 -75 50 C-75 41.75 -75 33.5 -75 25 C-50.25 25 -25.5 25 0 25 C0 16.75 0 8.5 0 0 Z " fill="#A59FB5" transform="translate(775,1250)"/>
<path d="M0 0 C8.25 0 16.5 0 25 0 C25 8.25 25 16.5 25 25 C33.25 25 41.5 25 50 25 C50 99.25 50 173.5 50 250 C58.25 250 66.5 250 75 250 C75 258.25 75 266.5 75 275 C66.75 275 58.5 275 50 275 C50 283.25 50 291.5 50 300 C41.75 300 33.5 300 25 300 C25 291.75 25 283.5 25 275 C16.75 275 8.5 275 0 275 C0 299.75 0 324.5 0 350 C-8.25 350 -16.5 350 -25 350 C-25 259.25 -25 168.5 -25 75 C-16.75 75 -8.5 75 0 75 C0 132.75 0 190.5 0 250 C8.25 250 16.5 250 25 250 C25 184 25 118 25 50 C16.75 50 8.5 50 0 50 C0 33.5 0 17 0 0 Z " fill="#000000" transform="translate(1150,625)"/>
<path d="M0 0 C24.75 0 49.5 0 75 0 C75 8.25 75 16.5 75 25 C91.5 25 108 25 125 25 C125 33.25 125 41.5 125 50 C133.25 50 141.5 50 150 50 C150 74.75 150 99.5 150 125 C125.25 125 100.5 125 75 125 C75 116.75 75 108.5 75 100 C83.25 100 91.5 100 100 100 C100 91.75 100 83.5 100 75 C83.5 75 67 75 50 75 C50 91.5 50 108 50 125 C33.5 125 17 125 0 125 C0 108.5 0 92 0 75 C8.25 75 16.5 75 25 75 C25 66.75 25 58.5 25 50 C8.5 50 -8 50 -25 50 C-25 58.25 -25 66.5 -25 75 C-33.25 75 -41.5 75 -50 75 C-50 58.5 -50 42 -50 25 C-33.5 25 -17 25 0 25 C0 16.75 0 8.5 0 0 Z " fill="#A59FB5" transform="translate(1025,1175)"/>
<path d="M0 0 C8.25 0 16.5 0 25 0 C25 16.5 25 33 25 50 C33.25 50 41.5 50 50 50 C50 107.75 50 165.5 50 225 C41.75 225 33.5 225 25 225 C25 241.5 25 258 25 275 C16.75 275 8.5 275 0 275 C0 258.5 0 242 0 225 C-8.25 225 -16.5 225 -25 225 C-25 167.25 -25 109.5 -25 50 C-16.75 50 -8.5 50 0 50 C0 33.5 0 17 0 0 Z " fill="#958ADB" transform="translate(500,800)"/>
<path d="M0 0 C8.25 0 16.5 0 25 0 C25 24.75 25 49.5 25 75 C16.75 75 8.5 75 0 75 C0 149.25 0 223.5 0 300 C-8.25 300 -16.5 300 -25 300 C-25 291.75 -25 283.5 -25 275 C-33.25 275 -41.5 275 -50 275 C-50 291.5 -50 308 -50 325 C-58.25 325 -66.5 325 -75 325 C-75 349.75 -75 374.5 -75 400 C-83.25 400 -91.5 400 -100 400 C-100 383.5 -100 367 -100 350 C-108.25 350 -116.5 350 -125 350 C-125 341.75 -125 333.5 -125 325 C-116.75 325 -108.5 325 -100 325 C-100 316.75 -100 308.5 -100 300 C-91.75 300 -83.5 300 -75 300 C-75 283.5 -75 267 -75 250 C-66.75 250 -58.5 250 -50 250 C-50 233.5 -50 217 -50 200 C-41.75 200 -33.5 200 -25 200 C-25 142.25 -25 84.5 -25 25 C-16.75 25 -8.5 25 0 25 C0 16.75 0 8.5 0 0 Z " fill="#000000" transform="translate(425,750)"/>
<path d="M0 0 C16.5 0 33 0 50 0 C50 16.5 50 33 50 50 C33.5 50 17 50 0 50 C0 58.25 0 66.5 0 75 C-24.75 75 -49.5 75 -75 75 C-75 83.25 -75 91.5 -75 100 C-157.5 100 -240 100 -325 100 C-325 91.75 -325 83.5 -325 75 C-341.5 75 -358 75 -375 75 C-375 66.75 -375 58.5 -375 50 C-350.25 50 -325.5 50 -300 50 C-300 58.25 -300 66.5 -300 75 C-242.25 75 -184.5 75 -125 75 C-125 66.75 -125 58.5 -125 50 C-100.25 50 -75.5 50 -50 50 C-50 41.75 -50 33.5 -50 25 C-33.5 25 -17 25 0 25 C0 16.75 0 8.5 0 0 Z " fill="#F5E49C" transform="translate(1000,1075)"/>
<path d="M0 0 C8.25 0 16.5 0 25 0 C25 8.25 25 16.5 25 25 C33.25 25 41.5 25 50 25 C50 33.25 50 41.5 50 50 C58.25 50 66.5 50 75 50 C75 58.25 75 66.5 75 75 C99.75 75 124.5 75 150 75 C150 83.25 150 91.5 150 100 C141.75 100 133.5 100 125 100 C125 108.25 125 116.5 125 125 C108.5 125 92 125 75 125 C75 133.25 75 141.5 75 150 C58.5 150 42 150 25 150 C25 158.25 25 166.5 25 175 C16.75 175 8.5 175 0 175 C0 183.25 0 191.5 0 200 C-16.5 200 -33 200 -50 200 C-50 191.75 -50 183.5 -50 175 C-41.75 175 -33.5 175 -25 175 C-25 166.75 -25 158.5 -25 150 C-16.75 150 -8.5 150 0 150 C0 141.75 0 133.5 0 125 C8.25 125 16.5 125 25 125 C25 116.75 25 108.5 25 100 C16.75 100 8.5 100 0 100 C0 67 0 34 0 0 Z " fill="#546D8E" transform="translate(575,500)"/>
<path d="M0 0 C8.25 0 16.5 0 25 0 C25 90.75 25 181.5 25 275 C33.25 275 41.5 275 50 275 C50 283.25 50 291.5 50 300 C66.5 300 83 300 100 300 C100 291.75 100 283.5 100 275 C108.25 275 116.5 275 125 275 C125 266.75 125 258.5 125 250 C141.5 250 158 250 175 250 C175 258.25 175 266.5 175 275 C166.75 275 158.5 275 150 275 C150 283.25 150 291.5 150 300 C141.75 300 133.5 300 125 300 C125 308.25 125 316.5 125 325 C116.75 325 108.5 325 100 325 C100 333.25 100 341.5 100 350 C91.75 350 83.5 350 75 350 C75 341.75 75 333.5 75 325 C50.25 325 25.5 325 0 325 C0 217.75 0 110.5 0 0 Z " fill="#000000" transform="translate(475,400)"/>
<path d="M0 0 C41.25 0 82.5 0 125 0 C125 8.25 125 16.5 125 25 C133.25 25 141.5 25 150 25 C150 33.25 150 41.5 150 50 C141.75 50 133.5 50 125 50 C125 66.5 125 83 125 100 C116.75 100 108.5 100 100 100 C100 108.25 100 116.5 100 125 C75.25 125 50.5 125 25 125 C25 100.25 25 75.5 25 50 C16.75 50 8.5 50 0 50 C0 33.5 0 17 0 0 Z " fill="#000000" transform="translate(700,850)"/>
<path d="M0 0 C16.5 0 33 0 50 0 C50 8.25 50 16.5 50 25 C58.25 25 66.5 25 75 25 C75 33.25 75 41.5 75 50 C99.75 50 124.5 50 150 50 C150 41.75 150 33.5 150 25 C141.75 25 133.5 25 125 25 C125 16.75 125 8.5 125 0 C141.5 0 158 0 175 0 C175 24.75 175 49.5 175 75 C166.75 75 158.5 75 150 75 C150 91.5 150 108 150 125 C141.75 125 133.5 125 125 125 C125 133.25 125 141.5 125 150 C100.25 150 75.5 150 50 150 C50 141.75 50 133.5 50 125 C66.5 125 83 125 100 125 C100 116.75 100 108.5 100 100 C108.25 100 116.5 100 125 100 C125 91.75 125 83.5 125 75 C100.25 75 75.5 75 50 75 C50 66.75 50 58.5 50 50 C41.75 50 33.5 50 25 50 C25 41.75 25 33.5 25 25 C16.75 25 8.5 25 0 25 C0 16.75 0 8.5 0 0 Z " fill="#000000" transform="translate(600,500)"/>
<path d="M0 0 C24.75 0 49.5 0 75 0 C75 33 75 66 75 100 C66.75 100 58.5 100 50 100 C50 133 50 166 50 200 C58.25 200 66.5 200 75 200 C75 208.25 75 216.5 75 225 C58.5 225 42 225 25 225 C25 200.25 25 175.5 25 150 C16.75 150 8.5 150 0 150 C0 141.75 0 133.5 0 125 C8.25 125 16.5 125 25 125 C25 108.5 25 92 25 75 C33.25 75 41.5 75 50 75 C50 58.5 50 42 50 25 C33.5 25 17 25 0 25 C0 16.75 0 8.5 0 0 Z " fill="#000000" transform="translate(475,1150)"/>
<path d="M0 0 C16.5 0 33 0 50 0 C50 16.5 50 33 50 50 C41.75 50 33.5 50 25 50 C25 66.5 25 83 25 100 C16.75 100 8.5 100 0 100 C0 108.25 0 116.5 0 125 C-16.5 125 -33 125 -50 125 C-50 92 -50 59 -50 25 C-33.5 25 -17 25 0 25 C0 16.75 0 8.5 0 0 Z " fill="#000000" transform="translate(1025,800)"/>
<path d="M0 0 C8.25 0 16.5 0 25 0 C25 8.25 25 16.5 25 25 C33.25 25 41.5 25 50 25 C50 41.5 50 58 50 75 C41.75 75 33.5 75 25 75 C25 83.25 25 91.5 25 100 C0.25 100 -24.5 100 -50 100 C-50 91.75 -50 83.5 -50 75 C-58.25 75 -66.5 75 -75 75 C-75 58.5 -75 42 -75 25 C-50.25 25 -25.5 25 0 25 C0 16.75 0 8.5 0 0 Z " fill="#919191" transform="translate(275,800)"/>
<path d="M0 0 C33 0 66 0 100 0 C100 8.25 100 16.5 100 25 C108.25 25 116.5 25 125 25 C125 33.25 125 41.5 125 50 C133.25 50 141.5 50 150 50 C150 66.5 150 83 150 100 C141.75 100 133.5 100 125 100 C125 91.75 125 83.5 125 75 C116.75 75 108.5 75 100 75 C100 66.75 100 58.5 100 50 C91.75 50 83.5 50 75 50 C75 41.75 75 33.5 75 25 C58.5 25 42 25 25 25 C25 41.5 25 58 25 75 C16.75 75 8.5 75 0 75 C0 91.5 0 108 0 125 C-8.25 125 -16.5 125 -25 125 C-25 100.25 -25 75.5 -25 50 C-16.75 50 -8.5 50 0 50 C0 33.5 0 17 0 0 Z " fill="#000000" transform="translate(950,350)"/>
<path d="M0 0 C8.25 0 16.5 0 25 0 C25 57.75 25 115.5 25 175 C33.25 175 41.5 175 50 175 C50 183.25 50 191.5 50 200 C41.75 200 33.5 200 25 200 C25 224.75 25 249.5 25 275 C16.75 275 8.5 275 0 275 C0 184.25 0 93.5 0 0 Z " fill="#000000" transform="translate(1125,700)"/>
<path d="M0 0 C33 0 66 0 100 0 C100 8.25 100 16.5 100 25 C75.25 25 50.5 25 25 25 C25 33.25 25 41.5 25 50 C-32.75 50 -90.5 50 -150 50 C-150 41.75 -150 33.5 -150 25 C-100.5 25 -51 25 0 25 C0 16.75 0 8.5 0 0 Z " fill="#000000" transform="translate(850,1100)"/>
<path d="M0 0 C41.25 0 82.5 0 125 0 C125 16.5 125 33 125 50 C92 50 59 50 25 50 C25 41.75 25 33.5 25 25 C16.75 25 8.5 25 0 25 C0 16.75 0 8.5 0 0 Z " fill="#F5E49C" transform="translate(825,1200)"/>
<path d="M0 0 C8.25 0 16.5 0 25 0 C25 74.25 25 148.5 25 225 C16.75 225 8.5 225 0 225 C0 150.75 0 76.5 0 0 Z " fill="#000000" transform="translate(600,825)"/>
<path d="M0 0 C8.25 0 16.5 0 25 0 C25 24.75 25 49.5 25 75 C41.5 75 58 75 75 75 C75 58.5 75 42 75 25 C83.25 25 91.5 25 100 25 C100 49.75 100 74.5 100 100 C67 100 34 100 0 100 C0 67 0 34 0 0 Z " fill="#000000" transform="translate(975,450)"/>
<path d="M0 0 C16.5 0 33 0 50 0 C50 8.25 50 16.5 50 25 C58.25 25 66.5 25 75 25 C75 33.25 75 41.5 75 50 C66.75 50 58.5 50 50 50 C50 58.25 50 66.5 50 75 C33.5 75 17 75 0 75 C0 66.75 0 58.5 0 50 C-8.25 50 -16.5 50 -25 50 C-25 41.75 -25 33.5 -25 25 C-16.75 25 -8.5 25 0 25 C0 16.75 0 8.5 0 0 Z " fill="#7971B0" transform="translate(750,750)"/>
<path d="M0 0 C16.5 0 33 0 50 0 C50 8.25 50 16.5 50 25 C58.25 25 66.5 25 75 25 C75 33.25 75 41.5 75 50 C66.75 50 58.5 50 50 50 C50 58.25 50 66.5 50 75 C33.5 75 17 75 0 75 C0 66.75 0 58.5 0 50 C-8.25 50 -16.5 50 -25 50 C-25 41.75 -25 33.5 -25 25 C-16.75 25 -8.5 25 0 25 C0 16.75 0 8.5 0 0 Z " fill="#7971B0" transform="translate(975,725)"/>
<path d="M0 0 C8.25 0 16.5 0 25 0 C25 8.25 25 16.5 25 25 C33.25 25 41.5 25 50 25 C50 74.5 50 124 50 175 C41.75 175 33.5 175 25 175 C25 133.75 25 92.5 25 50 C16.75 50 8.5 50 0 50 C0 33.5 0 17 0 0 Z " fill="#000000" transform="translate(1100,450)"/>
<path d="M0 0 C66 0 132 0 200 0 C200 8.25 200 16.5 200 25 C134 25 68 25 0 25 C0 16.75 0 8.5 0 0 Z " fill="#000000" transform="translate(700,150)"/>
<path d="M0 0 C24.75 0 49.5 0 75 0 C75 8.25 75 16.5 75 25 C83.25 25 91.5 25 100 25 C100 33.25 100 41.5 100 50 C67 50 34 50 0 50 C0 33.5 0 17 0 0 Z " fill="#A59FB5" transform="translate(900,1275)"/>
<path d="M0 0 C8.25 0 16.5 0 25 0 C25 57.75 25 115.5 25 175 C16.75 175 8.5 175 0 175 C0 117.25 0 59.5 0 0 Z " fill="#000000" transform="translate(550,850)"/>
<path d="M0 0 C8.25 0 16.5 0 25 0 C25 57.75 25 115.5 25 175 C16.75 175 8.5 175 0 175 C0 117.25 0 59.5 0 0 Z " fill="#000000" transform="translate(450,850)"/>
<path d="M0 0 C8.25 0 16.5 0 25 0 C25 8.25 25 16.5 25 25 C33.25 25 41.5 25 50 25 C50 33.25 50 41.5 50 50 C58.25 50 66.5 50 75 50 C75 58.25 75 66.5 75 75 C58.5 75 42 75 25 75 C25 83.25 25 91.5 25 100 C16.75 100 8.5 100 0 100 C0 67 0 34 0 0 Z " fill="#E600FF" transform="translate(575,500)"/>
<path d="M0 0 C8.25 0 16.5 0 25 0 C25 33 25 66 25 100 C33.25 100 41.5 100 50 100 C50 108.25 50 116.5 50 125 C41.75 125 33.5 125 25 125 C25 133.25 25 141.5 25 150 C16.75 150 8.5 150 0 150 C0 100.5 0 51 0 0 Z " fill="#000000" transform="translate(550,500)"/>
<path d="M0 0 C8.25 0 16.5 0 25 0 C25 33 25 66 25 100 C16.75 100 8.5 100 0 100 C0 83.5 0 67 0 50 C-16.5 50 -33 50 -50 50 C-50 41.75 -50 33.5 -50 25 C-33.5 25 -17 25 0 25 C0 16.75 0 8.5 0 0 Z " fill="#000000" transform="translate(1050,1025)"/>
<path d="M0 0 C8.25 0 16.5 0 25 0 C25 8.25 25 16.5 25 25 C33.25 25 41.5 25 50 25 C50 41.5 50 58 50 75 C33.5 75 17 75 0 75 C0 50.25 0 25.5 0 0 Z " fill="#E600FF" transform="translate(1000,450)"/>
<path d="M0 0 C8.25 0 16.5 0 25 0 C25 8.25 25 16.5 25 25 C33.25 25 41.5 25 50 25 C50 33.25 50 41.5 50 50 C58.25 50 66.5 50 75 50 C75 58.25 75 66.5 75 75 C58.5 75 42 75 25 75 C25 66.75 25 58.5 25 50 C16.75 50 8.5 50 0 50 C0 33.5 0 17 0 0 Z " fill="#000000" transform="translate(575,350)"/>
<path d="M0 0 C16.5 0 33 0 50 0 C50 8.25 50 16.5 50 25 C41.75 25 33.5 25 25 25 C25 33.25 25 41.5 25 50 C16.75 50 8.5 50 0 50 C0 58.25 0 66.5 0 75 C-8.25 75 -16.5 75 -25 75 C-25 58.5 -25 42 -25 25 C-16.75 25 -8.5 25 0 25 C0 16.75 0 8.5 0 0 Z " fill="#000000" transform="translate(525,325)"/>
<path d="M0 0 C33 0 66 0 100 0 C100 8.25 100 16.5 100 25 C67 25 34 25 0 25 C0 16.75 0 8.5 0 0 Z " fill="#F5E49C" transform="translate(700,1200)"/>
<path d="M0 0 C24.75 0 49.5 0 75 0 C75 8.25 75 16.5 75 25 C66.75 25 58.5 25 50 25 C50 33.25 50 41.5 50 50 C41.75 50 33.5 50 25 50 C25 41.75 25 33.5 25 25 C16.75 25 8.5 25 0 25 C0 16.75 0 8.5 0 0 Z " fill="#000000" transform="translate(875,950)"/>
<path d="M0 0 C33 0 66 0 100 0 C100 8.25 100 16.5 100 25 C67 25 34 25 0 25 C0 16.75 0 8.5 0 0 Z " fill="#000000" transform="translate(975,575)"/>
<path d="M0 0 C33 0 66 0 100 0 C100 8.25 100 16.5 100 25 C67 25 34 25 0 25 C0 16.75 0 8.5 0 0 Z " fill="#000000" transform="translate(900,175)"/>
<path d="M0 0 C33 0 66 0 100 0 C100 8.25 100 16.5 100 25 C67 25 34 25 0 25 C0 16.75 0 8.5 0 0 Z " fill="#000000" transform="translate(600,175)"/>
<path d="M0 0 C8.25 0 16.5 0 25 0 C25 24.75 25 49.5 25 75 C16.75 75 8.5 75 0 75 C0 50.25 0 25.5 0 0 Z " fill="#000000" transform="translate(425,1050)"/>
<path d="M0 0 C8.25 0 16.5 0 25 0 C25 16.5 25 33 25 50 C8.5 50 -8 50 -25 50 C-25 41.75 -25 33.5 -25 25 C-16.75 25 -8.5 25 0 25 C0 16.75 0 8.5 0 0 Z " fill="#000000" transform="translate(175,825)"/>
<path d="M0 0 C8.25 0 16.5 0 25 0 C25 24.75 25 49.5 25 75 C16.75 75 8.5 75 0 75 C0 50.25 0 25.5 0 0 Z " fill="#000000" transform="translate(575,750)"/>
<path d="M0 0 C24.75 0 49.5 0 75 0 C75 8.25 75 16.5 75 25 C50.25 25 25.5 25 0 25 C0 16.75 0 8.5 0 0 Z " fill="#000000" transform="translate(875,700)"/>
<path d="M0 0 C24.75 0 49.5 0 75 0 C75 8.25 75 16.5 75 25 C50.25 25 25.5 25 0 25 C0 16.75 0 8.5 0 0 Z " fill="#A59FB5" transform="translate(900,575)"/>
<path d="M0 0 C8.25 0 16.5 0 25 0 C25 24.75 25 49.5 25 75 C16.75 75 8.5 75 0 75 C0 50.25 0 25.5 0 0 Z " fill="#000000" transform="translate(1325,500)"/>
<path d="M0 0 C8.25 0 16.5 0 25 0 C25 24.75 25 49.5 25 75 C16.75 75 8.5 75 0 75 C0 50.25 0 25.5 0 0 Z " fill="#000000" transform="translate(250,500)"/>
<path d="M0 0 C24.75 0 49.5 0 75 0 C75 8.25 75 16.5 75 25 C50.25 25 25.5 25 0 25 C0 16.75 0 8.5 0 0 Z " fill="#000000" transform="translate(1050,225)"/>
<path d="M0 0 C24.75 0 49.5 0 75 0 C75 8.25 75 16.5 75 25 C50.25 25 25.5 25 0 25 C0 16.75 0 8.5 0 0 Z " fill="#000000" transform="translate(475,225)"/>
<path d="M0 0 C8.25 0 16.5 0 25 0 C25 16.5 25 33 25 50 C16.75 50 8.5 50 0 50 C0 33.5 0 17 0 0 Z " fill="#000000" transform="translate(1250,1100)"/>
<path d="M0 0 C16.5 0 33 0 50 0 C50 8.25 50 16.5 50 25 C33.5 25 17 25 0 25 C0 16.75 0 8.5 0 0 Z " fill="#000000" transform="translate(950,1075)"/>
<path d="M0 0 C8.25 0 16.5 0 25 0 C25 16.5 25 33 25 50 C16.75 50 8.5 50 0 50 C0 33.5 0 17 0 0 Z " fill="#000000" transform="translate(1300,1025)"/>
<path d="M0 0 C8.25 0 16.5 0 25 0 C25 16.5 25 33 25 50 C16.75 50 8.5 50 0 50 C0 33.5 0 17 0 0 Z " fill="#000000" transform="translate(525,1025)"/>
<path d="M0 0 C8.25 0 16.5 0 25 0 C25 16.5 25 33 25 50 C16.75 50 8.5 50 0 50 C0 33.5 0 17 0 0 Z " fill="#000000" transform="translate(475,1025)"/>
<path d="M0 0 C8.25 0 16.5 0 25 0 C25 16.5 25 33 25 50 C16.75 50 8.5 50 0 50 C0 33.5 0 17 0 0 Z " fill="#000000" transform="translate(275,1025)"/>
<path d="M0 0 C16.5 0 33 0 50 0 C50 8.25 50 16.5 50 25 C33.5 25 17 25 0 25 C0 16.75 0 8.5 0 0 Z " fill="#000000" transform="translate(1175,950)"/>
<path d="M0 0 C16.5 0 33 0 50 0 C50 8.25 50 16.5 50 25 C33.5 25 17 25 0 25 C0 16.75 0 8.5 0 0 Z " fill="#919191" transform="translate(150,875)"/>
<path d="M0 0 C16.5 0 33 0 50 0 C50 8.25 50 16.5 50 25 C33.5 25 17 25 0 25 C0 16.75 0 8.5 0 0 Z " fill="#000000" transform="translate(1225,850)"/>
<path d="M0 0 C16.5 0 33 0 50 0 C50 8.25 50 16.5 50 25 C33.5 25 17 25 0 25 C0 16.75 0 8.5 0 0 Z " fill="#000000" transform="translate(750,800)"/>
<path d="M0 0 C8.25 0 16.5 0 25 0 C25 16.5 25 33 25 50 C16.75 50 8.5 50 0 50 C0 33.5 0 17 0 0 Z " fill="#000000" transform="translate(525,800)"/>
<path d="M0 0 C8.25 0 16.5 0 25 0 C25 16.5 25 33 25 50 C16.75 50 8.5 50 0 50 C0 33.5 0 17 0 0 Z " fill="#000000" transform="translate(475,800)"/>
<path d="M0 0 C16.5 0 33 0 50 0 C50 8.25 50 16.5 50 25 C33.5 25 17 25 0 25 C0 16.75 0 8.5 0 0 Z " fill="#000000" transform="translate(975,775)"/>
<path d="M0 0 C16.5 0 33 0 50 0 C50 8.25 50 16.5 50 25 C33.5 25 17 25 0 25 C0 16.75 0 8.5 0 0 Z " fill="#000000" transform="translate(750,750)"/>
<path d="M0 0 C16.5 0 33 0 50 0 C50 8.25 50 16.5 50 25 C33.5 25 17 25 0 25 C0 16.75 0 8.5 0 0 Z " fill="#000000" transform="translate(350,750)"/>
<path d="M0 0 C16.5 0 33 0 50 0 C50 8.25 50 16.5 50 25 C33.5 25 17 25 0 25 C0 16.75 0 8.5 0 0 Z " fill="#000000" transform="translate(975,725)"/>
<path d="M0 0 C8.25 0 16.5 0 25 0 C25 16.5 25 33 25 50 C16.75 50 8.5 50 0 50 C0 33.5 0 17 0 0 Z " fill="#000000" transform="translate(1100,650)"/>
<path d="M0 0 C8.25 0 16.5 0 25 0 C25 16.5 25 33 25 50 C16.75 50 8.5 50 0 50 C0 33.5 0 17 0 0 Z " fill="#000000" transform="translate(1075,600)"/>
<path d="M0 0 C16.5 0 33 0 50 0 C50 8.25 50 16.5 50 25 C33.5 25 17 25 0 25 C0 16.75 0 8.5 0 0 Z " fill="#000000" transform="translate(600,575)"/>
<path d="M0 0 C8.25 0 16.5 0 25 0 C25 16.5 25 33 25 50 C16.75 50 8.5 50 0 50 C0 33.5 0 17 0 0 Z " fill="#000000" transform="translate(1300,450)"/>
<path d="M0 0 C8.25 0 16.5 0 25 0 C25 16.5 25 33 25 50 C16.75 50 8.5 50 0 50 C0 33.5 0 17 0 0 Z " fill="#000000" transform="translate(275,450)"/>
<path d="M0 0 C8.25 0 16.5 0 25 0 C25 16.5 25 33 25 50 C16.75 50 8.5 50 0 50 C0 33.5 0 17 0 0 Z " fill="#000000" transform="translate(1250,375)"/>
<path d="M0 0 C8.25 0 16.5 0 25 0 C25 16.5 25 33 25 50 C16.75 50 8.5 50 0 50 C0 33.5 0 17 0 0 Z " fill="#000000" transform="translate(325,375)"/>
<path d="M0 0 C16.5 0 33 0 50 0 C50 8.25 50 16.5 50 25 C33.5 25 17 25 0 25 C0 16.75 0 8.5 0 0 Z " fill="#000000" transform="translate(1000,200)"/>
<path d="M0 0 C16.5 0 33 0 50 0 C50 8.25 50 16.5 50 25 C33.5 25 17 25 0 25 C0 16.75 0 8.5 0 0 Z " fill="#000000" transform="translate(550,200)"/>
<path d="M0 0 C8.25 0 16.5 0 25 0 C25 8.25 25 16.5 25 25 C16.75 25 8.5 25 0 25 C0 16.75 0 8.5 0 0 Z " fill="#000000" transform="translate(450,1250)"/>
<path d="M0 0 C8.25 0 16.5 0 25 0 C25 8.25 25 16.5 25 25 C16.75 25 8.5 25 0 25 C0 16.75 0 8.5 0 0 Z " fill="#000000" transform="translate(425,1225)"/>
<path d="M0 0 C8.25 0 16.5 0 25 0 C25 8.25 25 16.5 25 25 C16.75 25 8.5 25 0 25 C0 16.75 0 8.5 0 0 Z " fill="#000000" transform="translate(400,1200)"/>
<path d="M0 0 C8.25 0 16.5 0 25 0 C25 8.25 25 16.5 25 25 C16.75 25 8.5 25 0 25 C0 16.75 0 8.5 0 0 Z " fill="#000000" transform="translate(1200,1175)"/>
<path d="M0 0 C8.25 0 16.5 0 25 0 C25 8.25 25 16.5 25 25 C16.75 25 8.5 25 0 25 C0 16.75 0 8.5 0 0 Z " fill="#000000" transform="translate(375,1175)"/>
<path d="M0 0 C8.25 0 16.5 0 25 0 C25 8.25 25 16.5 25 25 C16.75 25 8.5 25 0 25 C0 16.75 0 8.5 0 0 Z " fill="#000000" transform="translate(1225,1150)"/>
<path d="M0 0 C8.25 0 16.5 0 25 0 C25 8.25 25 16.5 25 25 C16.75 25 8.5 25 0 25 C0 16.75 0 8.5 0 0 Z " fill="#000000" transform="translate(350,1150)"/>
<path d="M0 0 C8.25 0 16.5 0 25 0 C25 8.25 25 16.5 25 25 C16.75 25 8.5 25 0 25 C0 16.75 0 8.5 0 0 Z " fill="#000000" transform="translate(550,1125)"/>
<path d="M0 0 C8.25 0 16.5 0 25 0 C25 8.25 25 16.5 25 25 C16.75 25 8.5 25 0 25 C0 16.75 0 8.5 0 0 Z " fill="#000000" transform="translate(450,1125)"/>
<path d="M0 0 C8.25 0 16.5 0 25 0 C25 8.25 25 16.5 25 25 C16.75 25 8.5 25 0 25 C0 16.75 0 8.5 0 0 Z " fill="#000000" transform="translate(1275,1075)"/>
<path d="M0 0 C8.25 0 16.5 0 25 0 C25 8.25 25 16.5 25 25 C16.75 25 8.5 25 0 25 C0 16.75 0 8.5 0 0 Z " fill="#000000" transform="translate(500,1075)"/>
<path d="M0 0 C8.25 0 16.5 0 25 0 C25 8.25 25 16.5 25 25 C16.75 25 8.5 25 0 25 C0 16.75 0 8.5 0 0 Z " fill="#000000" transform="translate(1075,1000)"/>
<path d="M0 0 C8.25 0 16.5 0 25 0 C25 8.25 25 16.5 25 25 C16.75 25 8.5 25 0 25 C0 16.75 0 8.5 0 0 Z " fill="#000000" transform="translate(1100,975)"/>
<path d="M0 0 C8.25 0 16.5 0 25 0 C25 8.25 25 16.5 25 25 C16.75 25 8.5 25 0 25 C0 16.75 0 8.5 0 0 Z " fill="#919191" transform="translate(225,950)"/>
<path d="M0 0 C8.25 0 16.5 0 25 0 C25 8.25 25 16.5 25 25 C16.75 25 8.5 25 0 25 C0 16.75 0 8.5 0 0 Z " fill="#919191" transform="translate(250,925)"/>
<path d="M0 0 C8.25 0 16.5 0 25 0 C25 8.25 25 16.5 25 25 C16.75 25 8.5 25 0 25 C0 16.75 0 8.5 0 0 Z " fill="#000000" transform="translate(1175,900)"/>
<path d="M0 0 C8.25 0 16.5 0 25 0 C25 8.25 25 16.5 25 25 C16.75 25 8.5 25 0 25 C0 16.75 0 8.5 0 0 Z " fill="#919191" transform="translate(125,900)"/>
<path d="M0 0 C8.25 0 16.5 0 25 0 C25 8.25 25 16.5 25 25 C16.75 25 8.5 25 0 25 C0 16.75 0 8.5 0 0 Z " fill="#000000" transform="translate(1200,875)"/>
<path d="M0 0 C8.25 0 16.5 0 25 0 C25 8.25 25 16.5 25 25 C16.75 25 8.5 25 0 25 C0 16.75 0 8.5 0 0 Z " fill="#FFFFFF" transform="translate(1175,875)"/>
<path d="M0 0 C8.25 0 16.5 0 25 0 C25 8.25 25 16.5 25 25 C16.75 25 8.5 25 0 25 C0 16.75 0 8.5 0 0 Z " fill="#000000" transform="translate(800,775)"/>
<path d="M0 0 C8.25 0 16.5 0 25 0 C25 8.25 25 16.5 25 25 C16.75 25 8.5 25 0 25 C0 16.75 0 8.5 0 0 Z " fill="#000000" transform="translate(725,775)"/>
<path d="M0 0 C8.25 0 16.5 0 25 0 C25 8.25 25 16.5 25 25 C16.75 25 8.5 25 0 25 C0 16.75 0 8.5 0 0 Z " fill="#000000" transform="translate(500,775)"/>
<path d="M0 0 C8.25 0 16.5 0 25 0 C25 8.25 25 16.5 25 25 C16.75 25 8.5 25 0 25 C0 16.75 0 8.5 0 0 Z " fill="#000000" transform="translate(1025,750)"/>
<path d="M0 0 C8.25 0 16.5 0 25 0 C25 8.25 25 16.5 25 25 C16.75 25 8.5 25 0 25 C0 16.75 0 8.5 0 0 Z " fill="#000000" transform="translate(950,750)"/>
<path d="M0 0 C8.25 0 16.5 0 25 0 C25 8.25 25 16.5 25 25 C16.75 25 8.5 25 0 25 C0 16.75 0 8.5 0 0 Z " fill="#000000" transform="translate(450,725)"/>
<path d="M0 0 C8.25 0 16.5 0 25 0 C25 8.25 25 16.5 25 25 C16.75 25 8.5 25 0 25 C0 16.75 0 8.5 0 0 Z " fill="#000000" transform="translate(525,650)"/>
<path d="M0 0 C8.25 0 16.5 0 25 0 C25 8.25 25 16.5 25 25 C16.75 25 8.5 25 0 25 C0 16.75 0 8.5 0 0 Z " fill="#000000" transform="translate(700,475)"/>
<path d="M0 0 C8.25 0 16.5 0 25 0 C25 8.25 25 16.5 25 25 C16.75 25 8.5 25 0 25 C0 16.75 0 8.5 0 0 Z " fill="#000000" transform="translate(575,475)"/>
<path d="M0 0 C8.25 0 16.5 0 25 0 C25 8.25 25 16.5 25 25 C16.75 25 8.5 25 0 25 C0 16.75 0 8.5 0 0 Z " fill="#000000" transform="translate(1025,450)"/>
<path d="M0 0 C8.25 0 16.5 0 25 0 C25 8.25 25 16.5 25 25 C16.75 25 8.5 25 0 25 C0 16.75 0 8.5 0 0 Z " fill="#000000" transform="translate(675,450)"/>
<path d="M0 0 C8.25 0 16.5 0 25 0 C25 8.25 25 16.5 25 25 C16.75 25 8.5 25 0 25 C0 16.75 0 8.5 0 0 Z " fill="#000000" transform="translate(1275,425)"/>
<path d="M0 0 C8.25 0 16.5 0 25 0 C25 8.25 25 16.5 25 25 C16.75 25 8.5 25 0 25 C0 16.75 0 8.5 0 0 Z " fill="#000000" transform="translate(1000,425)"/>
<path d="M0 0 C8.25 0 16.5 0 25 0 C25 8.25 25 16.5 25 25 C16.75 25 8.5 25 0 25 C0 16.75 0 8.5 0 0 Z " fill="#000000" transform="translate(650,425)"/>
<path d="M0 0 C8.25 0 16.5 0 25 0 C25 8.25 25 16.5 25 25 C16.75 25 8.5 25 0 25 C0 16.75 0 8.5 0 0 Z " fill="#000000" transform="translate(300,425)"/>
<path d="M0 0 C8.25 0 16.5 0 25 0 C25 8.25 25 16.5 25 25 C16.75 25 8.5 25 0 25 C0 16.75 0 8.5 0 0 Z " fill="#000000" transform="translate(1225,350)"/>
<path d="M0 0 C8.25 0 16.5 0 25 0 C25 8.25 25 16.5 25 25 C16.75 25 8.5 25 0 25 C0 16.75 0 8.5 0 0 Z " fill="#000000" transform="translate(350,350)"/>
<path d="M0 0 C8.25 0 16.5 0 25 0 C25 8.25 25 16.5 25 25 C16.75 25 8.5 25 0 25 C0 16.75 0 8.5 0 0 Z " fill="#000000" transform="translate(1200,325)"/>
<path d="M0 0 C8.25 0 16.5 0 25 0 C25 8.25 25 16.5 25 25 C16.75 25 8.5 25 0 25 C0 16.75 0 8.5 0 0 Z " fill="#000000" transform="translate(375,325)"/>
<path d="M0 0 C8.25 0 16.5 0 25 0 C25 8.25 25 16.5 25 25 C16.75 25 8.5 25 0 25 C0 16.75 0 8.5 0 0 Z " fill="#000000" transform="translate(1175,300)"/>
<path d="M0 0 C8.25 0 16.5 0 25 0 C25 8.25 25 16.5 25 25 C16.75 25 8.5 25 0 25 C0 16.75 0 8.5 0 0 Z " fill="#000000" transform="translate(400,300)"/>
<path d="M0 0 C8.25 0 16.5 0 25 0 C25 8.25 25 16.5 25 25 C16.75 25 8.5 25 0 25 C0 16.75 0 8.5 0 0 Z " fill="#000000" transform="translate(1150,275)"/>
<path d="M0 0 C8.25 0 16.5 0 25 0 C25 8.25 25 16.5 25 25 C16.75 25 8.5 25 0 25 C0 16.75 0 8.5 0 0 Z " fill="#000000" transform="translate(425,275)"/>
<path d="M0 0 C8.25 0 16.5 0 25 0 C25 8.25 25 16.5 25 25 C16.75 25 8.5 25 0 25 C0 16.75 0 8.5 0 0 Z " fill="#000000" transform="translate(1125,250)"/>
<path d="M0 0 C8.25 0 16.5 0 25 0 C25 8.25 25 16.5 25 25 C16.75 25 8.5 25 0 25 C0 16.75 0 8.5 0 0 Z " fill="#000000" transform="translate(450,250)"/>
</svg>
